<svg xmlns="http://www.w3.org/2000/svg" width="184" height="60" viewBox="0 0 184 60" fill="none">
  <path fill-rule="evenodd" clip-rule="evenodd" d="M1.1937 53.5554C1.13988 53.816 0.946189 54.2589 0.601982 53.9463C0.257775 53.6336 0.615019 53.3336 0.836668 53.2227L3.20308 50.3673C2.94884 50.2043 2.44427 49.7141 2.45991 49.057C2.46894 48.6776 2.69075 48.3942 2.95962 48.0506C3.27287 47.6503 3.65 47.1684 3.82891 46.3581C3.93924 45.8584 3.99572 45.3824 4.04983 44.9265C4.15876 44.0085 4.25802 43.172 4.76766 42.388C5.1149 41.8538 5.44593 41.4776 5.75152 41.1304C6.11717 40.7149 6.44639 40.3409 6.72338 39.7869C6.84646 39.5407 6.95464 39.2957 7.06208 39.0524C7.39849 38.2905 7.72754 37.5452 8.48352 36.8337C9.28146 36.0827 9.92424 35.7776 10.1459 35.719C9.8786 35.4321 9.35186 34.5807 9.38315 33.4699C9.42227 32.0813 10.0872 30.1061 12.2581 29.8909C14.4289 29.6758 15.0547 32.3356 14.9765 32.9027C14.9139 33.3565 14.8201 33.9653 14.7809 34.2131C15.133 34.1283 15.9505 33.9627 16.4042 33.9784C16.4305 33.9793 16.4597 33.9801 16.4918 33.9809C17.153 33.9985 19.0267 34.0485 21.0783 35.895C22.0908 36.8062 22.8736 37.3448 23.4351 37.7312C24.0666 38.1657 24.418 38.4075 24.5009 38.7699C24.6095 39.2453 23.8881 40.2772 23.3913 40.9878C23.1727 41.3004 22.9977 41.5508 22.9558 41.6644C22.8189 42.0359 23.171 42.6813 23.5034 42.9551C23.8359 43.2289 25.1462 44.4806 25.2245 44.6566C25.2871 44.7974 25.4461 45.1195 25.5178 45.2629C27.969 45.5236 33.8492 46.3111 37.7606 47.375C41.6721 48.439 44.5665 49.3177 45.5248 49.6241C45.8117 49.5785 46.3697 49.5655 46.3071 49.8784C46.2289 50.2695 45.7986 50.2108 45.6617 50.1131C45.5522 50.0348 45.3553 49.924 45.2706 49.8784C43.2106 49.2069 38.3513 47.7193 35.3942 47.1404C32.4372 46.5615 27.6952 45.8561 25.6938 45.5758C25.9807 46.0778 26.5974 47.2538 26.7695 47.9422C26.9846 48.8027 27.3562 49.8784 28.5492 50.2891C28.8341 50.3872 29.099 50.4585 29.3584 50.5283C30.1852 50.751 30.9568 50.9587 32.1477 51.971C32.8294 52.5504 33.5653 53.269 34.1846 53.8738C34.7025 54.3795 35.1389 54.8057 35.3942 55.0046C38.3599 54.7749 44.7177 52.8423 48.9642 50.6787C55.1564 47.5237 60.099 43.1974 59.7216 36.782C59.387 31.0926 55.603 29.3944 49.6533 26.8286C43.7036 24.2627 39.9878 17.9489 40.8866 14.1953C41.6088 11.1789 45.1258 5.44867 56.0082 2.36594C64.021 0.0960972 70.1909 1.13364e-07 72.608 0C74.5417 -9.06909e-08 81.0834 0.260394 84.7202 0.604938C82.2783 0.580147 74.4605 0.839744 69.79 1.7917C63.9518 2.98164 48.9476 8.1725 47.0884 16.8368C45.5375 24.0637 49.5584 26.1408 53.3332 28.0908C54.084 28.4786 54.825 28.8614 55.5105 29.2786C55.5744 29.3175 55.6386 29.3566 55.7032 29.3959C60.0903 32.065 66.0635 35.6991 65.7703 41.4525C65.4728 47.2907 57.446 52.5689 50.3807 54.3538C44.7284 55.7817 40.1405 56.2451 38.5539 56.369C38.8142 56.8648 39.2537 57.5493 40.9631 57.9741C42.7241 58.4117 55.7967 58.3439 66.7656 49.6241C74.8471 43.1998 72.3211 35.1123 66.3828 31.8053C65.9984 31.5912 65.5217 31.3426 64.9794 31.0597C60.8305 28.8955 52.8361 24.7255 52.869 18.6744C52.9062 11.8322 59.9467 7.22652 70.1728 4.58633C78.3537 2.47418 88.7399 2.32766 96.6261 3.43785C90.0798 3.13159 77.6006 4.92832 69.5986 8.75914C60.4167 13.1547 57.6501 19.354 58.8028 24.2253C59.6761 27.9155 63.0962 29.7622 67.0473 31.8957C68.312 32.5785 69.6311 33.2908 70.9384 34.1023C77.6056 38.2405 78.2186 43.0541 77.1402 46.7355C76.0619 50.4169 68.4942 56.1565 58.5288 57.9741C48.9693 59.7177 42.1813 59.3785 37.4391 59.1416C35.9933 59.0694 34.7376 59.0066 33.6516 59.0153C29.7718 59.0463 27.6018 59.0256 26.7958 59.0178C26.6362 59.0163 26.53 59.0153 26.4747 59.0153C26.207 59.0153 26.0905 57.9493 26.0657 57.4163C24.1072 57.5155 19.4987 57.751 16.732 57.8997C15.9623 57.9411 15.257 57.9991 14.6244 58.0511C12.4149 58.2327 11.0922 58.3414 11.0054 57.4163C10.8939 56.2264 12.4185 56.0404 13.6828 56.2636C14.9471 56.4867 20.1903 56.7098 20.4506 56.4867C20.7109 56.2636 20.5994 55.2595 20.0416 55.0364C19.8314 54.9523 19.6212 54.9597 19.4109 54.9671C19.0634 54.9793 18.7158 54.9915 18.3682 54.5902C18.1968 54.3923 18.0429 54.1826 17.8915 53.9762C17.5503 53.5111 17.2214 53.0629 16.732 52.8053C16.5232 52.6953 16.3468 52.6295 16.1683 52.5629C15.7431 52.4041 15.3061 52.2409 14.3893 51.4666C14.2258 51.3285 14.0483 51.1843 13.8637 51.0343C12.5789 49.9908 10.9546 48.6716 11.3773 47.2274C11.764 45.9061 13.2242 45.7596 13.9059 45.8515C14.1042 45.7152 14.4191 45.3309 14.0918 44.8847C13.8829 44.5998 13.3926 44.082 12.8836 43.5445C12.3961 43.0297 11.8915 42.4968 11.6004 42.133C11.0054 41.3893 10.1459 40.3852 10.1459 40.3852C10.0481 40.472 9.76343 40.7943 9.40644 41.3893C8.96021 42.133 7.9247 43.0626 7.32404 43.5088C6.72338 43.9551 6.28284 44.4448 6.05972 45.5758C5.96247 46.0688 5.85108 46.4278 5.75328 46.743C5.62672 47.1508 5.52291 47.4854 5.50194 47.9422C5.49223 48.1536 5.49708 48.367 5.50179 48.5738C5.5151 49.1593 5.52723 49.6923 5.20445 49.9792C4.85502 50.2897 3.94328 50.5052 3.53109 50.5741L1.04715 53.3737L1.1937 53.5554ZM31.7492 55.6409C30.253 55.7598 27.1001 55.9976 26.458 55.9976H24.615C24.3871 55.7598 23.8005 55.1831 23.2773 54.7789C22.9973 54.5625 22.7664 54.3407 22.5565 54.1391C22.2761 53.8698 22.0333 53.6366 21.7613 53.5006C21.6675 53.4537 21.5795 53.4138 21.4952 53.3755C21.1521 53.2197 20.8707 53.092 20.5128 52.6386C20.3728 52.4613 20.2505 52.2841 20.1401 52.1243C19.8989 51.7749 19.7154 51.509 19.5318 51.509C19.3178 51.509 18.8679 51.3108 18.6698 51.2117V50.2902C18.7589 50.2902 19.0562 50.2605 19.5318 50.1416C20.0121 50.0215 20.5893 49.4747 20.8562 49.2219C20.9196 49.1618 20.9655 49.1183 20.9884 49.1012C21.0017 49.0912 21.0184 49.0763 21.0384 49.0586C21.1959 48.9183 21.5538 48.5998 22.0288 49.1012C22.1457 49.2246 22.2754 49.3693 22.4197 49.5303C22.9358 50.1062 23.6392 50.891 24.615 51.6576C25.5381 52.3829 26.4774 52.7345 27.2528 53.0247C27.5261 53.1269 27.779 53.2216 28.0037 53.3223C28.4031 53.5013 28.8281 53.7889 29.2342 54.0636C29.7046 54.3819 30.1497 54.6831 30.5007 54.7789C31.0239 54.9216 31.551 55.413 31.7492 55.6409Z" fill="#222222"/>
  <path fill-rule="evenodd" clip-rule="evenodd" d="M128.554 6.73088C132.36 6.73088 136.413 7.72005 136.413 13.7273C136.413 19.7346 130.857 26.5288 122.697 26.5288C116.169 26.5288 114.751 22.5059 114.937 19.6845C115.221 15.3793 118.508 6.73088 128.554 6.73088ZM119.157 18.9026C119.157 16.0903 121.332 9.90565 127.66 9.90565C130.238 9.90565 132.281 11.1032 132.281 14.1029C132.281 17.1027 129.806 23.2897 123.957 23.2897C120.469 23.2897 119.157 21.7148 119.157 18.9026Z" fill="#222222"/>
  <path fill-rule="evenodd" clip-rule="evenodd" d="M94.6273 26.0475L99.7509 8.84918C100.039 7.88205 100.928 7.21906 101.937 7.21906H110.038C112.243 7.21906 115.502 8.17059 114.501 12.1254C113.007 18.0243 109.354 19.4342 104.699 19.4342H100.806L98.8091 26.0475H94.6273ZM101.888 15.9716L103.45 10.4261H108.385C109.677 10.4261 110.772 11.4132 110.18 13.3335C109.587 15.2538 107.703 15.9716 106.124 15.9716H101.888Z" fill="#222222"/>
  <path fill-rule="evenodd" clip-rule="evenodd" d="M140.716 9.27082L135.762 26.0422H140.068L142.232 18.7834H147.827C149.93 18.7834 149.353 21.3365 148.802 22.8383C148.362 24.0397 148.352 25.4748 148.402 26.0422H152.883C152.766 25.5916 152.691 24.26 153.171 22.5379C153.772 20.3853 154.194 18.8456 153.686 17.9945C153.508 17.6963 153.185 17.4924 152.929 17.3307C152.608 17.1285 152.392 16.9922 152.694 16.8195C152.724 16.8022 152.771 16.7784 152.83 16.7477C153.464 16.4219 155.63 15.3083 156.626 12.74C157.577 10.2871 157.238 7.16938 151.882 7.16938H143.378C142.128 7.16938 141.066 8.07056 140.716 9.27082ZM144.621 10.4261L143.098 15.5914H148.36C149.939 15.5914 151.824 14.8736 152.378 13.3335C153.058 11.4426 151.876 10.4261 150.583 10.4261H144.621Z" fill="#222222"/>
  <path d="M159.291 10.4734C159.391 9.37204 159.982 7.16938 161.544 7.16938H176.562L175.711 10.4734H169.553L164.848 26.0422H160.793L165.248 10.4734H159.291Z" fill="#222222"/>
  <path d="M88.4867 45.9974L84.4702 34.1188H89.5976L91.6486 42.3227L98.3143 34.1188H103.057L92.7596 45.9974L90.5377 52.8767H86.5212L88.4867 45.9974Z" fill="#222222"/>
  <path d="M121.687 39.7162H117.286C117.357 39.4171 117.499 38.6908 117.499 38.178C117.499 37.5371 117.499 36.8962 115.406 36.8962H110.791C107.8 36.8962 107.373 39.7162 107.159 40.5281C106.945 41.3399 107.702 41.9646 109.766 42.0236C111.261 42.0663 112.329 42.1091 116.858 42.4082C121.388 42.7073 120.106 46.4246 119.123 48.9029C118.14 51.3812 115.406 53.2185 112.329 53.2185H103.057C100.622 53.2185 99.0407 51.2957 99.4252 49.9711C99.7329 48.9114 100.123 47.6495 100.28 47.151H104.724C104.624 47.4359 104.39 48.1851 104.254 48.9029C104.083 49.8002 104.937 50.4839 106.817 50.4839H111.09C114.38 50.4839 115.149 47.7492 115.406 46.8092C115.662 45.8692 115.278 44.9911 113.44 44.9911C111.603 44.9911 109.851 44.801 106.561 44.801C103.271 44.801 102.032 42.6218 102.502 41.169C102.972 39.7162 103.057 39.4599 103.784 37.5371C104.51 35.6143 107.586 34.1188 110.449 34.1188H117.884C123.524 34.1188 122.769 37.8504 121.687 39.7162Z" fill="#222222"/>
  <path d="M127.374 34.1138C125.431 34.1138 124.64 36.2045 124.487 37.2498L130.487 37.2689L126.055 52.8767H130.487L134.889 37.2689H141.008L142.003 34.1138H127.374Z" fill="#222222"/>
  <path d="M146.359 34.1144L158.884 34.1188L157.886 37.2689H147.837L146.652 41.5185H154.64C154.64 41.5185 153.908 44.5143 151.621 44.5143H145.591L144.093 49.6945H154.141L153.205 52.8767H139.1L144.171 35.748C144.458 34.7789 145.348 34.1141 146.359 34.1144Z" fill="#222222"/>
  <path d="M161.591 35.7657L156.638 52.8767H160.48L165.101 37.8168L165.063 52.8767H169.381L177.983 38.0829L173.801 52.8767H177.671L183.101 34.1138H176.786L168.246 48.764V34.1188H163.782C162.766 34.1188 161.873 34.7902 161.591 35.7657Z" fill="#222222"/>
</svg>